# xmcd CD database file
#
# Track frame offsets:
#	150
#	24321
#	43140
#	59551
#
# Disc length: 1097 seconds
#
# Revision: 0
# Processed by: cddbd v1.5.1PL2 Copyright (c) Steve Scherf et al.
# Submitted via: CDex 1.51
#
DISCID=30044704
DTITLE=加藤ミリヤ - ソツギョウ
DYEAR=2006
DGENRE=JPop
TTITLE0=ソツギョウ
TTITLE1=Caught up
TTITLE2=ready or not
TTITLE3=ソツギョウ DJ Mitsu the Beats School Gate Mix
EXTD=YEAR: 2006
EXTT0=
EXTT1=
EXTT2=
EXTT3=
PLAYORDER=
